<svg width="40" height="40" viewBox="0 0 40 40" fill="none" xmlns="http://www.w3.org/2000/svg">
<rect y="0.209961" width="40" height="39" rx="19.5" fill="white"/>
<path d="M15.2588 23.2825L22.1671 16.3742H17.5171C17.2961 16.3742 17.0842 16.2864 16.9279 16.1301C16.7716 15.9738 16.6838 15.7619 16.6838 15.5409C16.6838 15.3198 16.7716 15.1079 16.9279 14.9516C17.0842 14.7953 17.2961 14.7075 17.5171 14.7075H24.1421C24.3631 14.7075 24.5751 14.7953 24.7314 14.9516C24.8877 15.1079 24.9755 15.3198 24.9755 15.5409V22.2075C24.9755 22.4285 24.8877 22.6405 24.7314 22.7968C24.5751 22.9531 24.3631 23.0409 24.1421 23.0409H24.1838C23.9628 23.0409 23.7508 22.9531 23.5945 22.7968C23.4383 22.6405 23.3505 22.4285 23.3505 22.2075V17.5825L16.4671 24.4659C16.3897 24.544 16.2975 24.606 16.1959 24.6483C16.0944 24.6906 15.9855 24.7124 15.8755 24.7124C15.7655 24.7124 15.6565 24.6906 15.555 24.6483C15.4534 24.606 15.3613 24.544 15.2838 24.4659C15.204 24.39 15.1401 24.2992 15.0956 24.1985C15.0511 24.0979 15.027 23.9894 15.0247 23.8794C15.0224 23.7694 15.0419 23.66 15.0821 23.5575C15.1222 23.4551 15.1823 23.3616 15.2588 23.2825Z" fill="black"/>
</svg>
