<svg width="17" height="17" viewBox="0 0 17 17" fill="none" xmlns="http://www.w3.org/2000/svg">
<path d="M7.25 6.3365C7.25003 6.1176 7.30755 5.90254 7.41679 5.71284C7.52604 5.52314 7.68319 5.36546 7.87252 5.25557C8.06185 5.14569 8.27671 5.08745 8.49562 5.08668C8.71452 5.08591 8.92979 5.14264 9.11988 5.2512C9.30998 5.35976 9.46823 5.51633 9.5788 5.70526C9.68938 5.89419 9.7484 6.10884 9.74997 6.32774C9.75153 6.54664 9.69558 6.76211 9.58772 6.9526C9.47985 7.14309 9.32386 7.30191 9.13533 7.41317C8.81867 7.6005 8.5 7.88517 8.5 8.25317V9.0865" stroke="#888888" stroke-linecap="round"/>
<path d="M8.50001 11.7533C8.8682 11.7533 9.16668 11.4548 9.16668 11.0866C9.16668 10.7184 8.8682 10.4199 8.50001 10.4199C8.13182 10.4199 7.83334 10.7184 7.83334 11.0866C7.83334 11.4548 8.13182 11.7533 8.50001 11.7533Z" fill="#888888"/>
<path d="M5.16667 2.64518C6.17964 2.059 7.32966 1.75125 8.5 1.75318C12.182 1.75318 15.1667 4.73785 15.1667 8.41985C15.1667 12.1018 12.182 15.0865 8.5 15.0865C4.818 15.0865 1.83334 12.1018 1.83334 8.41985C1.83334 7.20585 2.158 6.06652 2.72534 5.08652" stroke="#888888" stroke-linecap="round"/>
</svg>
