<svg width="20" height="20" viewBox="0 0 20 20" fill="none" xmlns="http://www.w3.org/2000/svg">
<path d="M10.8567 1.66663C11.7942 1.66913 12.27 1.67413 12.6808 1.68579L12.8425 1.69163C13.0292 1.69829 13.2133 1.70663 13.4358 1.71663C14.3225 1.75829 14.9275 1.89829 15.4583 2.10413C16.0083 2.31579 16.4717 2.60246 16.935 3.06496C17.3589 3.4814 17.6868 3.98535 17.8958 4.54163C18.1017 5.07246 18.2417 5.67746 18.2833 6.56496C18.2933 6.78663 18.3017 6.97079 18.3083 7.15829L18.3133 7.31996C18.3258 7.72996 18.3308 8.20579 18.3325 9.14329L18.3333 9.76496V10.8566C18.3354 11.4645 18.329 12.0723 18.3142 12.68L18.3092 12.8416C18.3025 13.0291 18.2942 13.2133 18.2842 13.435C18.2425 14.3225 18.1008 14.9266 17.8958 15.4583C17.6868 16.0146 17.3589 16.5185 16.935 16.935C16.5186 17.3589 16.0146 17.6868 15.4583 17.8958C14.9275 18.1016 14.3225 18.2416 13.4358 18.2833L12.8425 18.3083L12.6808 18.3133C12.27 18.325 11.7942 18.3308 10.8567 18.3325L10.235 18.3333H9.14417C8.53606 18.3354 7.92794 18.329 7.32001 18.3141L7.15834 18.3091C6.96051 18.3016 6.76273 18.293 6.56501 18.2833C5.67834 18.2416 5.07334 18.1016 4.54167 17.8958C3.9857 17.6867 3.48204 17.3588 3.06584 16.935C2.64163 16.5186 2.31343 16.0146 2.10417 15.4583C1.89834 14.9275 1.75834 14.3225 1.71667 13.435L1.69167 12.8416L1.68751 12.68C1.67214 12.0723 1.6652 11.4645 1.66667 10.8566V9.14329C1.66437 8.53546 1.67048 7.92762 1.68501 7.31996L1.69084 7.15829C1.69751 6.97079 1.70584 6.78663 1.71584 6.56496C1.75751 5.67746 1.89751 5.07329 2.10334 4.54163C2.31308 3.98512 2.64186 3.48116 3.06667 3.06496C3.48263 2.64125 3.986 2.31335 4.54167 2.10413C5.07334 1.89829 5.67751 1.75829 6.56501 1.71663C6.78667 1.70663 6.97167 1.69829 7.15834 1.69163L7.32001 1.68663C7.92767 1.67182 8.5355 1.66543 9.14334 1.66746L10.8567 1.66663ZM10 5.83329C8.89494 5.83329 7.83513 6.27228 7.05373 7.05368C6.27233 7.83508 5.83334 8.89489 5.83334 9.99996C5.83334 11.105 6.27233 12.1648 7.05373 12.9462C7.83513 13.7276 8.89494 14.1666 10 14.1666C11.1051 14.1666 12.1649 13.7276 12.9463 12.9462C13.7277 12.1648 14.1667 11.105 14.1667 9.99996C14.1667 8.89489 13.7277 7.83508 12.9463 7.05368C12.1649 6.27228 11.1051 5.83329 10 5.83329ZM10 7.49996C10.3283 7.4999 10.6534 7.56452 10.9567 7.6901C11.2601 7.81569 11.5357 7.99979 11.7679 8.2319C12.0001 8.46401 12.1843 8.73957 12.31 9.04287C12.4356 9.34616 12.5004 9.67124 12.5004 9.99954C12.5005 10.3278 12.4359 10.6529 12.3103 10.9563C12.1847 11.2596 12.0006 11.5352 11.7685 11.7674C11.5364 11.9996 11.2608 12.1838 10.9575 12.3095C10.6542 12.4352 10.3291 12.4999 10.0008 12.5C9.3378 12.5 8.70191 12.2366 8.23307 11.7677C7.76423 11.2989 7.50084 10.663 7.50084 9.99996C7.50084 9.33692 7.76423 8.70103 8.23307 8.23219C8.70191 7.76335 9.3378 7.49996 10.0008 7.49996M14.3758 4.58329C14.0996 4.58329 13.8346 4.69304 13.6393 4.88839C13.4439 5.08374 13.3342 5.34869 13.3342 5.62496C13.3342 5.90123 13.4439 6.16618 13.6393 6.36153C13.8346 6.55688 14.0996 6.66663 14.3758 6.66663C14.6521 6.66663 14.9171 6.55688 15.1124 6.36153C15.3078 6.16618 15.4175 5.90123 15.4175 5.62496C15.4175 5.34869 15.3078 5.08374 15.1124 4.88839C14.9171 4.69304 14.6521 4.58329 14.3758 4.58329Z" fill="#FF5252"/>
</svg>
