<svg width="9" height="8" viewBox="0 0 9 8" fill="none" xmlns="http://www.w3.org/2000/svg">
<path d="M5.28 7.67992V5.46992C5.28 4.20459 5.57467 3.16459 6.164 2.34992C6.77067 1.51792 7.646 0.980588 8.79 0.737921V2.16792C8.23533 2.30659 7.802 2.56659 7.49 2.94792C7.178 3.31192 6.98733 3.76259 6.918 4.29992H8.27V7.67992H5.28ZM0.47 7.67992V5.46992C0.47 4.20459 0.764667 3.16459 1.354 2.34992C1.96067 1.51792 2.836 0.980588 3.98 0.737921V2.16792C3.42533 2.30659 2.992 2.56659 2.68 2.94792C2.368 3.31192 2.17733 3.76259 2.108 4.29992H3.46V7.67992H0.47Z" fill="#8D8D8D"/>
</svg>
