<svg width="17" height="17" viewBox="0 0 17 17" fill="none" xmlns="http://www.w3.org/2000/svg">
<path d="M7.83867 4.25866L5.122 5.76666C4.91013 5.88488 4.73374 6.05763 4.61112 6.26699C4.48851 6.47635 4.42413 6.7147 4.42467 6.95733V9.88266C4.42413 10.1253 4.48851 10.3636 4.61112 10.573C4.73374 10.7824 4.91013 10.9551 5.122 11.0733L7.83867 12.5813C8.04092 12.6939 8.26855 12.753 8.5 12.753C8.73146 12.753 8.95909 12.6939 9.16134 12.5813L11.878 11.0733C12.0899 10.9551 12.2663 10.7824 12.3889 10.573C12.5115 10.3636 12.5759 10.1253 12.5753 9.88266V6.95733C12.5759 6.7147 12.5115 6.47635 12.3889 6.26699C12.2663 6.05763 12.0899 5.88488 11.878 5.76666L9.16134 4.25866C8.95909 4.14611 8.73146 4.08704 8.5 4.08704C8.26855 4.08704 8.04092 4.14611 7.83867 4.25866Z" stroke="#767676"/>
<path d="M12.2993 6.13794L8.5 8.41994M8.5 8.41994L4.70067 6.13794M8.5 8.41994V12.7493" stroke="#767676"/>
<path d="M14.6667 5.6793V4.30863C14.6667 3.76352 14.4501 3.24074 14.0647 2.85529C13.6792 2.46984 13.1564 2.2533 12.6113 2.2533H10.5553M10.5553 14.5866H12.6113C13.1564 14.5866 13.6792 14.3701 14.0647 13.9846C14.4501 13.5992 14.6667 13.0764 14.6667 12.5313V11.16M2.33334 11.1606V12.5313C2.33334 13.0764 2.54988 13.5992 2.93533 13.9846C3.32078 14.3701 3.84356 14.5866 4.38867 14.5866H6.44467M6.44467 2.2533H4.38867C3.84356 2.2533 3.32078 2.46984 2.93533 2.85529C2.54988 3.24074 2.33334 3.76352 2.33334 4.30863V5.67996" stroke="#767676" stroke-linecap="round" stroke-linejoin="round"/>
</svg>
