<svg width="18" height="17" viewBox="0 0 18 17" fill="none" xmlns="http://www.w3.org/2000/svg">
<path d="M8.63678 1.20739C8.77974 0.89744 9.22026 0.897439 9.36322 1.20739L11.4455 5.72165C11.5037 5.84797 11.6234 5.93495 11.7616 5.95133L16.6983 6.53666C17.0373 6.57685 17.1734 6.99581 16.9228 7.22755L13.273 10.6029C13.1708 10.6973 13.1251 10.838 13.1522 10.9745L14.1211 15.8505C14.1876 16.1853 13.8312 16.4442 13.5334 16.2775L9.19538 13.8493C9.07399 13.7813 8.92601 13.7813 8.80462 13.8493L4.46665 16.2775C4.1688 16.4442 3.81242 16.1853 3.87894 15.8505L4.8478 10.9745C4.87491 10.838 4.82919 10.6973 4.72705 10.6029L1.07717 7.22756C0.826575 6.99581 0.962701 6.57685 1.30166 6.53666L6.23842 5.95133C6.37657 5.93495 6.49628 5.84797 6.55455 5.72165L8.63678 1.20739Z" fill="#FFAE00"/>
</svg>
