<svg width="14" height="15" viewBox="0 0 14 15" fill="none" xmlns="http://www.w3.org/2000/svg">
<path d="M7 0.753174C7.88406 0.753174 8.7319 1.10436 9.35703 1.72948C9.98215 2.35461 10.3333 3.20245 10.3333 4.08651C10.3333 4.97056 9.98215 5.81841 9.35703 6.44353C8.7319 7.06865 7.88406 7.41984 7 7.41984C6.11595 7.41984 5.2681 7.06865 4.64298 6.44353C4.01786 5.81841 3.66667 4.97056 3.66667 4.08651C3.66667 3.20245 4.01786 2.35461 4.64298 1.72948C5.2681 1.10436 6.11595 0.753174 7 0.753174ZM7 9.08651C10.6833 9.08651 13.6667 10.5782 13.6667 12.4198V14.0865H0.333336V12.4198C0.333336 10.5782 3.31667 9.08651 7 9.08651Z" fill="#888888"/>
</svg>
