<svg width="20" height="21" viewBox="0 0 20 21" fill="none" xmlns="http://www.w3.org/2000/svg">
<path d="M9.125 11.0033L7.91666 9.81579C7.76389 9.66301 7.57305 9.58662 7.34416 9.58662C7.11527 9.58662 6.91722 9.66995 6.75 9.83662C6.59722 9.9894 6.52083 10.1838 6.52083 10.42C6.52083 10.6561 6.59722 10.8505 6.75 11.0033L8.54166 12.795C8.70833 12.9616 8.90277 13.045 9.125 13.045C9.34722 13.045 9.54166 12.9616 9.70833 12.795L13.25 9.25329C13.4167 9.08662 13.4964 8.89218 13.4892 8.66995C13.4819 8.44773 13.4022 8.25329 13.25 8.08662C13.0833 7.91995 12.8856 7.83329 12.6567 7.82662C12.4278 7.81995 12.2297 7.89968 12.0625 8.06579L9.125 11.0033ZM6.79166 18.545L5.58333 16.5033L3.29166 16.0033C3.08333 15.9616 2.91666 15.8541 2.79166 15.6808C2.66666 15.5075 2.61805 15.3163 2.64583 15.1075L2.875 12.7533L1.3125 10.9616C1.17361 10.8088 1.10416 10.6283 1.10416 10.42C1.10416 10.2116 1.17361 10.0311 1.3125 9.87829L2.875 8.08662L2.64583 5.73245C2.61805 5.52412 2.66666 5.33301 2.79166 5.15912C2.91666 4.98523 3.08333 4.87773 3.29166 4.83662L5.58333 4.33662L6.79166 2.29495C6.90277 2.1144 7.05555 1.99273 7.25 1.92995C7.44444 1.86718 7.63889 1.87773 7.83333 1.96162L10 2.87829L12.1667 1.96162C12.3611 1.87829 12.5556 1.86773 12.75 1.92995C12.9444 1.99218 13.0972 2.11384 13.2083 2.29495L14.4167 4.33662L16.7083 4.83662C16.9167 4.87829 17.0833 4.98607 17.2083 5.15995C17.3333 5.33384 17.3819 5.52468 17.3542 5.73245L17.125 8.08662L18.6875 9.87829C18.8264 10.0311 18.8958 10.2116 18.8958 10.42C18.8958 10.6283 18.8264 10.8088 18.6875 10.9616L17.125 12.7533L17.3542 15.1075C17.3819 15.3158 17.3333 15.5069 17.2083 15.6808C17.0833 15.8547 16.9167 15.9622 16.7083 16.0033L14.4167 16.5033L13.2083 18.545C13.0972 18.7255 12.9444 18.8472 12.75 18.91C12.5556 18.9727 12.3611 18.9622 12.1667 18.8783L10 17.9616L7.83333 18.8783C7.63889 18.9616 7.44444 18.9722 7.25 18.91C7.05555 18.8477 6.90277 18.7261 6.79166 18.545Z" fill="#5190E2"/>
</svg>
